<mxfile host="app.diagrams.net" modified="2023-09-29T15:50:29.368Z" agent="Mozilla/5.0 (Windows NT 10.0; Win64; x64) AppleWebKit/537.36 (KHTML, like Gecko) Chrome/117.0.0.0 Safari/537.36" etag="LknXZfxXWg7swJehhBMV" version="22.0.0" type="github">
  <diagram id="prtHgNgQTEPvFCAcTncT" name="Page-1">
    <mxGraphModel dx="1050" dy="542" grid="1" gridSize="10" guides="1" tooltips="1" connect="1" arrows="1" fold="1" page="1" pageScale="1" pageWidth="827" pageHeight="1169" math="0" shadow="0">
      <root>
        <mxCell id="0" />
        <mxCell id="1" parent="0" />
        <mxCell id="kZnhnawMWi4XAC5wPra--32" value="" style="edgeStyle=orthogonalEdgeStyle;rounded=0;orthogonalLoop=1;jettySize=auto;html=1;" edge="1" parent="1" source="kZnhnawMWi4XAC5wPra--26" target="kZnhnawMWi4XAC5wPra--29">
          <mxGeometry relative="1" as="geometry" />
        </mxCell>
        <mxCell id="kZnhnawMWi4XAC5wPra--26" value="Productos" style="whiteSpace=wrap;html=1;align=center;" vertex="1" parent="1">
          <mxGeometry x="360" y="170" width="100" height="40" as="geometry" />
        </mxCell>
        <mxCell id="kZnhnawMWi4XAC5wPra--41" style="edgeStyle=orthogonalEdgeStyle;rounded=0;orthogonalLoop=1;jettySize=auto;html=1;entryX=0.5;entryY=1;entryDx=0;entryDy=0;" edge="1" parent="1" source="kZnhnawMWi4XAC5wPra--27" target="kZnhnawMWi4XAC5wPra--38">
          <mxGeometry relative="1" as="geometry" />
        </mxCell>
        <mxCell id="kZnhnawMWi4XAC5wPra--27" value="AlmacÃ©n" style="whiteSpace=wrap;html=1;align=center;" vertex="1" parent="1">
          <mxGeometry x="360" y="380" width="100" height="40" as="geometry" />
        </mxCell>
        <mxCell id="kZnhnawMWi4XAC5wPra--37" style="edgeStyle=orthogonalEdgeStyle;rounded=0;orthogonalLoop=1;jettySize=auto;html=1;" edge="1" parent="1" source="kZnhnawMWi4XAC5wPra--28" target="kZnhnawMWi4XAC5wPra--26">
          <mxGeometry relative="1" as="geometry" />
        </mxCell>
        <mxCell id="kZnhnawMWi4XAC5wPra--28" value="Proveedores" style="whiteSpace=wrap;html=1;align=center;" vertex="1" parent="1">
          <mxGeometry x="10" y="170" width="100" height="40" as="geometry" />
        </mxCell>
        <mxCell id="kZnhnawMWi4XAC5wPra--46" style="edgeStyle=orthogonalEdgeStyle;rounded=0;orthogonalLoop=1;jettySize=auto;html=1;entryX=0.5;entryY=1;entryDx=0;entryDy=0;" edge="1" parent="1" source="kZnhnawMWi4XAC5wPra--29" target="kZnhnawMWi4XAC5wPra--42">
          <mxGeometry relative="1" as="geometry" />
        </mxCell>
        <mxCell id="kZnhnawMWi4XAC5wPra--48" style="edgeStyle=orthogonalEdgeStyle;rounded=0;orthogonalLoop=1;jettySize=auto;html=1;" edge="1" parent="1" source="kZnhnawMWi4XAC5wPra--29" target="kZnhnawMWi4XAC5wPra--44">
          <mxGeometry relative="1" as="geometry" />
        </mxCell>
        <mxCell id="kZnhnawMWi4XAC5wPra--29" value="Clientes" style="whiteSpace=wrap;html=1;align=center;" vertex="1" parent="1">
          <mxGeometry x="670" y="170" width="100" height="40" as="geometry" />
        </mxCell>
        <mxCell id="kZnhnawMWi4XAC5wPra--31" value="Compran" style="shape=rhombus;double=1;perimeter=rhombusPerimeter;whiteSpace=wrap;html=1;align=center;" vertex="1" parent="1">
          <mxGeometry x="510" y="160" width="120" height="60" as="geometry" />
        </mxCell>
        <mxCell id="kZnhnawMWi4XAC5wPra--34" value="Venden" style="shape=rhombus;double=1;perimeter=rhombusPerimeter;whiteSpace=wrap;html=1;align=center;" vertex="1" parent="1">
          <mxGeometry x="170" y="160" width="120" height="60" as="geometry" />
        </mxCell>
        <mxCell id="kZnhnawMWi4XAC5wPra--40" style="edgeStyle=orthogonalEdgeStyle;rounded=0;orthogonalLoop=1;jettySize=auto;html=1;entryX=0.5;entryY=1;entryDx=0;entryDy=0;" edge="1" parent="1" source="kZnhnawMWi4XAC5wPra--38" target="kZnhnawMWi4XAC5wPra--26">
          <mxGeometry relative="1" as="geometry" />
        </mxCell>
        <mxCell id="kZnhnawMWi4XAC5wPra--38" value="Almacena" style="shape=rhombus;double=1;perimeter=rhombusPerimeter;whiteSpace=wrap;html=1;align=center;" vertex="1" parent="1">
          <mxGeometry x="350" y="270" width="120" height="60" as="geometry" />
        </mxCell>
        <mxCell id="kZnhnawMWi4XAC5wPra--42" value="DNI" style="ellipse;whiteSpace=wrap;html=1;align=center;fontStyle=4;" vertex="1" parent="1">
          <mxGeometry x="680" y="70" width="80" height="40" as="geometry" />
        </mxCell>
        <mxCell id="kZnhnawMWi4XAC5wPra--44" value="&lt;span style=&quot;border-bottom: 1px dotted&quot;&gt;Attribute&lt;/span&gt;" style="ellipse;whiteSpace=wrap;html=1;align=center;" vertex="1" parent="1">
          <mxGeometry x="670" y="250" width="100" height="40" as="geometry" />
        </mxCell>
        <mxCell id="kZnhnawMWi4XAC5wPra--49" value="&lt;span style=&quot;border-bottom: 1px dotted&quot;&gt;Attribute&lt;/span&gt;" style="ellipse;whiteSpace=wrap;html=1;align=center;" vertex="1" parent="1">
          <mxGeometry x="490" y="70" width="100" height="40" as="geometry" />
        </mxCell>
        <mxCell id="kZnhnawMWi4XAC5wPra--51" value="" style="endArrow=none;html=1;rounded=0;entryX=0.5;entryY=1;entryDx=0;entryDy=0;exitX=0.447;exitY=0.073;exitDx=0;exitDy=0;exitPerimeter=0;" edge="1" parent="1" source="kZnhnawMWi4XAC5wPra--31" target="kZnhnawMWi4XAC5wPra--49">
          <mxGeometry relative="1" as="geometry">
            <mxPoint x="280" y="240" as="sourcePoint" />
            <mxPoint x="440" y="240" as="targetPoint" />
          </mxGeometry>
        </mxCell>
      </root>
    </mxGraphModel>
  </diagram>
</mxfile>
